<?xml version="1.0" encoding="UTF-8" standalone="no"?>
<!-- Generator: Adobe Illustrator 19.0.0, SVG Export Plug-In . SVG Version: 6.00 Build 0)  -->

<svg
   xmlns:dc="http://purl.org/dc/elements/1.1/"
   xmlns:cc="http://creativecommons.org/ns#"
   xmlns:rdf="http://www.w3.org/1999/02/22-rdf-syntax-ns#"
   xmlns:svg="http://www.w3.org/2000/svg"
   xmlns="http://www.w3.org/2000/svg"
   xmlns:sodipodi="http://sodipodi.sourceforge.net/DTD/sodipodi-0.dtd"
   xmlns:inkscape="http://www.inkscape.org/namespaces/inkscape"
   version="1.1"
   id="Layer_1"
   x="0px"
   y="0px"
   viewBox="0 0 505 505"
   style="enable-background:new 0 0 505 505;"
   xml:space="preserve"
   inkscape:version="0.48.5 r10040"
   width="100%"
   height="100%"
   sodipodi:docname="data-analysis.svg"><metadata
     id="metadata4784"><rdf:RDF><cc:Work
         rdf:about=""><dc:format>image/svg+xml</dc:format><dc:type
           rdf:resource="http://purl.org/dc/dcmitype/StillImage" /></cc:Work></rdf:RDF></metadata><defs
     id="defs4782" /><sodipodi:namedview
     pagecolor="#ffffff"
     bordercolor="#666666"
     borderopacity="1"
     objecttolerance="10"
     gridtolerance="10"
     guidetolerance="10"
     inkscape:pageopacity="0"
     inkscape:pageshadow="2"
     inkscape:window-width="1914"
     inkscape:window-height="1034"
     id="namedview4780"
     showgrid="false"
     inkscape:zoom="1.3217996"
     inkscape:cx="172.9139"
     inkscape:cy="196.47164"
     inkscape:window-x="4800"
     inkscape:window-y="1062"
     inkscape:window-maximized="0"
     inkscape:current-layer="Layer_1" /><circle
     style="fill:#039cc3;fill-opacity:1"
     cx="252.5"
     cy="252.5"
     r="252.5"
     id="circle4722" /><path
     style="fill:#ebebeb;fill-opacity:1"
     d="m 216.26039,78.90625 c -66.00311,0 -119.526653,53.49165 -119.526653,119.49476 0,66.00311 53.523543,119.52665 119.526653,119.52665 29.07286,0 55.72338,-10.39148 76.4422,-27.6493 l 17.79506,17.82694 -9.15265,9.18455 c -0.80423,0.80423 -0.80423,2.224 0,3.18908 l 96.66096,96.69285 c 0.80424,0.80423 2.25589,0.80423 3.22097,0 l 34.76095,-34.76095 c 0.80423,-0.80423 0.80423,-2.25589 0,-3.22097 L 339.29503,282.5289 c -0.96508,-0.96509 -2.41674,-0.96509 -3.22097,0 l -9.31211,9.3121 -17.89073,-17.89072 c 16.81462,-20.58844 26.88393,-46.89391 26.88393,-75.54927 0,-66.00311 -53.49165,-119.49476 -119.49476,-119.49476 z m 0,25.09805 c 52.14512,0 94.42861,42.25159 94.42861,94.39671 0,52.14513 -42.28349,94.42861 -94.42861,94.42861 -52.14512,0 -94.42861,-42.28348 -94.42861,-94.42861 0,-52.14512 42.28349,-94.39671 94.42861,-94.39671 z"
     id="rect4742"
     inkscape:connector-curvature="0" /><g
     id="g4750" /><g
     id="g4752" /><g
     id="g4754" /><g
     id="g4756" /><g
     id="g4758" /><g
     id="g4760" /><g
     id="g4762" /><g
     id="g4764" /><g
     id="g4766" /><g
     id="g4768" /><g
     id="g4770" /><g
     id="g4772" /><g
     id="g4774" /><g
     id="g4776" /><g
     id="g4778" /><path
     inkscape:connector-curvature="0"
     id="path4861-3"
     d="m 187.28476,287.39838 c -2.99591,-2.99593 -2.67481,-1.90239 -14.76079,-50.26938 -4.75856,-19.04333 -9.13551,-35.10781 -9.72655,-35.69887 -1.96002,-1.96001 -4.00833,2.05463 -7.1844,14.08133 -3.97821,15.06412 -6.52104,16.93225 -23.04772,16.93225 l -12.71442,0 0,-9.60899 0,-9.60899 8.59996,0 c 10.01277,0 8.40681,3.09729 18.57035,-35.81533 3.51367,-13.45259 7.18901,-25.44199 8.16745,-26.64311 2.29903,-2.8223 10.88333,-2.8223 13.19295,0 0.98295,1.20112 5.86569,17.51457 10.85059,36.2521 8.41963,31.64831 10.90383,38.61675 13.01421,36.50637 0.45271,-0.45271 5.10956,-27.35486 10.34855,-59.78256 5.23902,-32.42771 10.48131,-60.11121 11.64957,-61.51887 2.7896,-3.361259 9.4765,-3.265029 12.92756,0.18603 1.50999,1.50999 2.74649,3.27892 2.7478,3.93095 0.009,4.60936 22.86321,100.74832 24.28851,102.17362 1.23648,1.23648 2.19359,0.75112 3.05386,-1.54864 12.06321,-32.24872 15.87295,-39.16488 21.57375,-39.16488 4.65526,0 7.86681,4.74581 17.14303,25.33279 l 8.65938,19.21798 6.7314,0.56695 c 8.64982,0.72854 11.14342,2.91706 11.14342,9.78008 0,7.99372 -2.73089,9.7445 -15.19968,9.7445 -13.10107,0 -15.52898,-1.84462 -21.55081,-16.37337 -2.51695,-6.07257 -5.05251,-9.76131 -6.50092,-9.4575 -1.30602,0.27394 -6.34597,10.57796 -11.19991,22.89782 -9.44073,23.96166 -12.91017,28.05292 -20.39318,24.04814 -4.111,-2.20015 -4.03044,-1.93476 -15.15877,-49.92905 -4.45438,-19.21082 -8.4454,-35.27528 -8.86896,-35.69885 -2.37896,-2.37894 -4.58441,7.82894 -12.8059,59.27154 -7.74237,48.44469 -9.60101,57.22922 -12.66053,59.83779 -4.42012,3.76862 -7.3819,3.86602 -10.8898,0.35815 z"
     style="fill:#ebebeb"
     sodipodi:nodetypes="sscsscccssssssssscsssscssssssssssss" /></svg>