<?xml version="1.0" encoding="UTF-8" standalone="no"?>
<svg
   width="62.099998"
   height="62.099998"
   viewBox="0 0 62.099998 62.099998"
   version="1.1"
   id="svg1"
   sodipodi:docname="reload.svg"
   inkscape:version="1.3.2 (091e20ef0f, 2023-11-25, custom)"
   xml:space="preserve"
   xmlns:inkscape="http://www.inkscape.org/namespaces/inkscape"
   xmlns:sodipodi="http://sodipodi.sourceforge.net/DTD/sodipodi-0.dtd"
   xmlns="http://www.w3.org/2000/svg"
   xmlns:svg="http://www.w3.org/2000/svg"><defs
     id="defs1" /><sodipodi:namedview
     id="namedview1"
     pagecolor="#ffffff"
     bordercolor="#666666"
     borderopacity="1.0"
     inkscape:showpageshadow="2"
     inkscape:pageopacity="0.0"
     inkscape:pagecheckerboard="0"
     inkscape:deskcolor="#d1d1d1"
     inkscape:zoom="6.1171875"
     inkscape:cx="22.886335"
     inkscape:cy="19.616858"
     inkscape:window-width="3840"
     inkscape:window-height="2052"
     inkscape:window-x="1920"
     inkscape:window-y="0"
     inkscape:window-maximized="1"
     inkscape:current-layer="svg1" /><path
     d="M 50.087994,11.194636 C 45.097254,6.2038961 38.247893,3.1061941 30.641317,3.1061941 A 27.535121,27.535121 0 0 0 3.1061935,30.641315 27.535121,27.535121 0 0 0 30.641317,58.176436 c 12.838249,0 23.542526,-8.77682 26.60581,-20.651341 H 50.087994 C 47.265645,45.544699 39.62465,51.292656 30.641317,51.292656 A 20.65134,20.65134 0 0 1 9.9899745,30.641315 20.65134,20.65134 0 0 1 30.641317,9.9899735 c 5.713536,0 10.807534,2.3749045 14.524776,6.1265655 L 34.083206,27.199426 H 58.176437 V 3.1061941 Z"
     id="path1-5"
     style="fill:#deddda;fill-opacity:1;stroke-width:1" /></svg>
