<?xml version="1.0" encoding="UTF-8" standalone="no"?>
<!-- Generator: Adobe Illustrator 19.0.0, SVG Export Plug-In . SVG Version: 6.00 Build 0)  -->

<svg
   xmlns:dc="http://purl.org/dc/elements/1.1/"
   xmlns:cc="http://creativecommons.org/ns#"
   xmlns:rdf="http://www.w3.org/1999/02/22-rdf-syntax-ns#"
   xmlns:svg="http://www.w3.org/2000/svg"
   xmlns="http://www.w3.org/2000/svg"
   xmlns:sodipodi="http://sodipodi.sourceforge.net/DTD/sodipodi-0.dtd"
   xmlns:inkscape="http://www.inkscape.org/namespaces/inkscape"
   version="1.1"
   id="Layer_1"
   x="0px"
   y="0px"
   viewBox="0 0 505 505"
   style="enable-background:new 0 0 505 505;"
   xml:space="preserve"
   inkscape:version="0.48.5 r10040"
   width="100%"
   height="100%"
   sodipodi:docname="scanning.svg"><metadata
     id="metadata4062"><rdf:RDF><cc:Work
         rdf:about=""><dc:format>image/svg+xml</dc:format><dc:type
           rdf:resource="http://purl.org/dc/dcmitype/StillImage" /></cc:Work></rdf:RDF></metadata><defs
     id="defs4060" /><sodipodi:namedview
     pagecolor="#ffffff"
     bordercolor="#666666"
     borderopacity="1"
     objecttolerance="10"
     gridtolerance="10"
     guidetolerance="10"
     inkscape:pageopacity="0"
     inkscape:pageshadow="2"
     inkscape:window-width="1914"
     inkscape:window-height="1033"
     id="namedview4058"
     showgrid="false"
     inkscape:zoom="1.3217996"
     inkscape:cx="206.43263"
     inkscape:cy="273.65999"
     inkscape:window-x="4800"
     inkscape:window-y="0"
     inkscape:window-maximized="0"
     inkscape:current-layer="Layer_1" /><path
     style="fill:#2ca05a;stroke:none;stroke-width:18;stroke-miterlimit:4;stroke-dasharray:none;stroke-linejoin:round;stroke-linecap:round"
     d="M 505,252.5 C 505,391.9519 391.9519,505 252.5,505 113.0481,505 0,391.9519 0,252.5 0,113.0481 113.0481,0 252.5,0 391.9519,0 505,113.0481 505,252.5 z"
     id="circle4006" /><g
     id="g4028" /><g
     id="g4030" /><g
     id="g4032" /><g
     id="g4034" /><g
     id="g4036" /><g
     id="g4038" /><g
     id="g4040" /><g
     id="g4042" /><g
     id="g4044" /><g
     id="g4046" /><g
     id="g4048" /><g
     id="g4050" /><g
     id="g4052" /><g
     id="g4054" /><g
     id="g4056" /><path
     style="color:#000000;fill:none;stroke:#ffffff;stroke-width:19.47727013;stroke-linecap:round;stroke-linejoin:round;stroke-miterlimit:4;stroke-opacity:1;stroke-dasharray:none;stroke-dashoffset:0;marker:none;visibility:visible;display:inline;overflow:visible;enable-background:accumulate"
     d="m 252.49999,159.02097 c -86.81953,0 -165.282534,35.79516 -221.407328,93.45284 56.124794,57.65769 134.587798,93.50521 221.407328,93.50521 86.81953,0 165.28254,-35.84752 221.40735,-93.50521 -56.12481,-57.65768 -134.58782,-93.45284 -221.40735,-93.45284 z"
     id="path4575"
     inkscape:connector-curvature="0" /><path
     sodipodi:type="arc"
     style="color:#000000;fill:#ffffff;stroke:#ffffff;stroke-width:18;stroke-linecap:round;stroke-linejoin:round;stroke-miterlimit:4;stroke-opacity:1;stroke-dasharray:none;stroke-dashoffset:0;marker:none;visibility:visible;display:inline;overflow:visible;enable-background:accumulate"
     id="path4584"
     sodipodi:cx="268.57324"
     sodipodi:cy="257.61002"
     sodipodi:rx="69.980354"
     sodipodi:ry="69.980354"
     d="m 338.5536,257.61002 a 69.980354,69.980354 0 1 1 -139.96071,0 69.980354,69.980354 0 1 1 139.96071,0 z"
     transform="matrix(1.0820705,0,0,1.0820705,-38.115182,-26.252199)" /><path
     inkscape:connector-curvature="0"
     id="path4861-3"
     d="m 220.0371,341.12623 c -2.86914,-2.86916 -2.56162,-1.82189 -14.13617,-48.14219 -4.5572,-18.23749 -8.74894,-33.62219 -9.31497,-34.18824 -1.87708,-1.87707 -3.83871,1.96769 -6.88038,13.48547 -3.80987,14.42667 -6.2451,16.21574 -22.07243,16.21574 l -12.1764,0 0,-9.20237 0,-9.20238 8.23604,0 c 9.58907,0 8.05107,2.96623 17.78453,-34.29977 3.36499,-12.88333 6.8848,-24.36539 7.82184,-25.51568 2.20174,-2.70287 10.42279,-2.70287 12.63468,0 0.94135,1.15029 5.61747,16.77342 10.39143,34.71806 8.06335,30.30908 10.44243,36.98264 12.4635,34.96157 0.43356,-0.43356 4.89335,-26.19732 9.91064,-57.25281 5.01733,-31.0555 10.03779,-57.56755 11.15661,-58.91564 2.67156,-3.21902 9.0755,-3.12687 12.38052,0.17816 1.44609,1.44609 2.63027,3.14017 2.63152,3.76461 0.009,4.41431 21.89574,96.48506 23.26072,97.85004 1.18417,1.18416 2.10077,0.71934 2.92464,-1.4831 11.55275,-30.88409 15.20128,-37.50759 20.66083,-37.50759 4.45827,0 7.53392,4.54499 16.41761,24.26081 l 8.29296,18.40476 6.44655,0.54296 c 8.28379,0.69771 10.67188,2.79362 10.67188,9.36622 0,7.65546 -2.61534,9.33215 -14.55649,9.33215 -12.5467,0 -14.87187,-1.76656 -20.63887,-15.68051 -2.41044,-5.8156 -4.83871,-9.34825 -6.22583,-9.0573 -1.25075,0.26235 -6.07743,10.13035 -10.72597,21.92888 -9.04125,22.9477 -12.36388,26.86583 -19.53022,23.03052 -3.93704,-2.10705 -3.85989,-1.85289 -14.51732,-47.81626 -4.26589,-18.39789 -8.08802,-33.78257 -8.49366,-34.18821 -2.27829,-2.27828 -4.39042,7.49765 -12.26401,56.7634 -7.41474,46.39471 -9.19473,54.80752 -12.12478,57.3057 -4.23308,3.60915 -7.06953,3.70243 -10.42899,0.343 z"
     style="fill:#2ca05a;fill-opacity:1"
     sodipodi:nodetypes="sscsscccssssssssscsssscssssssssssss" /></svg>