<?xml version="1.0" encoding="UTF-8" standalone="no"?>
<svg
   viewBox="0 0 33 33"
   version="1.1"
   id="svg1"
   sodipodi:docname="startertool.svg"
   inkscape:version="1.3.2 (091e20ef0f, 2023-11-25, custom)"
   xml:space="preserve"
   width="33"
   height="33"
   inkscape:export-filename="startertool.png"
   inkscape:export-xdpi="1489.4546"
   inkscape:export-ydpi="1489.4546"
   xmlns:inkscape="http://www.inkscape.org/namespaces/inkscape"
   xmlns:sodipodi="http://sodipodi.sourceforge.net/DTD/sodipodi-0.dtd"
   xmlns:xlink="http://www.w3.org/1999/xlink"
   xmlns="http://www.w3.org/2000/svg"
   xmlns:svg="http://www.w3.org/2000/svg"><defs
     id="defs1"><clipPath
       id="SVGID_2_-2"><use
         xlink:href="#SVGID_1_"
         overflow="visible"
         id="use242-8"
         style="overflow:visible"
         x="0"
         y="0"
         width="385.24799"
         height="359.43799" /></clipPath><rect
       id="SVGID_1_"
       y="0.0080000004"
       width="385.24799"
       height="359.42999"
       x="0" /></defs><sodipodi:namedview
     id="namedview1"
     pagecolor="#ffffff"
     bordercolor="#666666"
     borderopacity="1.0"
     inkscape:showpageshadow="2"
     inkscape:pageopacity="0.0"
     inkscape:pagecheckerboard="0"
     inkscape:deskcolor="#d1d1d1"
     showgrid="false"
     inkscape:zoom="18.875"
     inkscape:cx="10.384106"
     inkscape:cy="12.476821"
     inkscape:window-width="1920"
     inkscape:window-height="998"
     inkscape:window-x="0"
     inkscape:window-y="0"
     inkscape:window-maximized="1"
     inkscape:current-layer="svg1" /><g
     id="g4057"
     style="stroke-width:3.45139"
     transform="matrix(0.07010148,0,0,0.07004455,4.4757066,2.983258)"><rect
       transform="translate(0,0.008)"
       y="-1.522975"
       x="-23.225363"
       height="381.88586"
       width="381.88586"
       id="rect3281"
       style="color:#000000;display:inline;overflow:visible;visibility:visible;fill:#ffffff;fill-opacity:1;fill-rule:nonzero;stroke:#000000;stroke-width:10.3542;stroke-opacity:1;marker:none;enable-background:accumulate" /><path
       sodipodi:nodetypes="ccccc"
       inkscape:connector-curvature="0"
       id="rect4051"
       d="M 358.6605,-1.522975 V 380.36289 H -23.225363 L 233.40882,71.498788 Z"
       style="color:#000000;display:inline;overflow:visible;visibility:visible;fill:#ff6600;fill-opacity:1;fill-rule:nonzero;stroke:none;stroke-width:10.3542;marker:none;enable-background:accumulate"
       transform="translate(0,0.008)" /><rect
       style="color:#000000;display:inline;overflow:visible;visibility:visible;fill:none;stroke:#000000;stroke-width:10.3542;stroke-opacity:1;marker:none;enable-background:accumulate"
       id="rect4055"
       width="381.88586"
       height="381.88586"
       x="-23.225363"
       y="-1.522975"
       transform="translate(0,0.008)" /></g><path
     id="path246"
     style="fill:#ffc000;fill-opacity:1;stroke:#000000;stroke-width:0.870657;stroke-linejoin:bevel;stroke-miterlimit:4;stroke-dasharray:none;stroke-opacity:1"
     d="m 19.014831,4.0979715 c 0,0 -6.228475,7.4393455 -9.3169533,10.7309185 L 14.582727,14.092674 4.9579758,22.959312 8.8613816,22.288152 0.5382857,31.716993 20.199984,17.931206 14.596215,18.97563 27.025624,9.2458715 21.238989,9.9846858 32.486264,1.486978 Z"
     inkscape:connector-curvature="0"
     sodipodi:nodetypes="cccccccccccc" /><path
     fill="currentColor"
     d="m 15.974961,24.922439 c 0.451971,0 0.790949,0 1.24292,-0.112993 0.112993,0.79095 0.338978,1.581899 0.677957,2.146863 -0.564964,0.112992 -1.242921,0.225985 -1.920877,0.225985 -6.2146017,0 -11.2992755,-5.084674 -11.2992755,-11.299275 0,-6.2146022 5.0846738,-11.299276 11.2992755,-11.299276 6.214601,0 11.299275,5.0846738 11.299275,11.299276 0,0.564964 -0.09039,1.09603 -0.180788,1.694891 l -0.0452,0.225986 c -0.677956,-0.338978 -1.355913,-0.564964 -2.146862,-0.677957 0.112993,-0.451971 0.112993,-0.790949 0.112993,-1.24292 0,-4.971682 -4.067739,-9.039421 -9.03942,-9.039421 -4.971681,0 -9.0394205,4.067739 -9.0394205,9.039421 0,4.971681 4.0677395,9.03942 9.0394205,9.03942 m 0.564964,-8.700442 3.502775,2.03387 c -0.451971,0.338978 -0.903942,0.677956 -1.24292,1.129927 l -3.954744,-2.372847 v -6.779566 h 1.694891 v 5.988616 m 5.92082,6.158105 1.423708,-3.1073 1.41241,3.1073 3.1073,1.41241 -3.1073,1.423708 -1.41241,3.096002 -1.423708,-3.096002 -3.096002,-1.423708 z"
     id="path1"
     style="fill:#e1ff00;fill-opacity:1;stroke:none;stroke-width:1"
     inkscape:export-filename="path1.png"
     inkscape:export-xdpi="1510.6602"
     inkscape:export-ydpi="1510.6602" /></svg>
